# xmcd
#
# Track frame offsets: 
#        150
#        26372
#        70296
#        90988
#        120557
#        156118
#        188646
#        203554
#        232976
#        266201
#        307567
#
# Disc length: 4715 seconds
#
# Revision: 1
# Processed by: cddbd v1.5.2PL0 Copyright (c) Steve Scherf et al.
# Submitted via: ExactAudioCopy v0.99pb4
#
DISCID=7d12690b
DTITLE=Bruce Springsteen - Atlantic City, 11-13-05(JerseyBoy matrix-Di
DTITLE=sc 2)
DYEAR=2005
DGENRE=Rock and Roll
TTITLE0=The Rising
TTITLE1=Further On (Up The Road)
TTITLE2=Jesus Was An Only Son
TTITLE3=This Hard Land
TTITLE4=The Hitter
TTITLE5=Matamoros Banks
TTITLE6=I Wanna Mary You
TTITLE7=4th Of July, Asbury Park, Ny (Sandy)
TTITLE8=Thundercrack
TTITLE9=The Promised Land
TTITLE10=Dream Baby Dream
EXTD=
EXTT0=
EXTT1=
EXTT2=
EXTT3=
EXTT4=
EXTT5=
EXTT6=
EXTT7=
EXTT8=
EXTT9=
EXTT10=
PLAYORDER=
